# xmcd CD database file
#
# Track frame offsets:
#	150
#	20748
#	35802
#	52628
#	68990
#	91392
#	113793
#	134267
#	155634
#	174993
#	192389
#
# Disc length: 2805 seconds
#
# Revision: 0
# Processed by: cddbd v1.5.2PL0 Copyright (c) Steve Scherf et al.
# Submitted via: CD2WAV32(JP) R3.22
#
DISCID=940af30b
DTITLE=斉藤由貴 - ガラスの鼓動
DYEAR=2013
DGENRE=JPop
TTITLE0=千の風音
TTITLE1=月野原
TTITLE2=土曜日のタマネギ
TTITLE3=初戀
TTITLE4=情熱
TTITLE5=コスモス通信
TTITLE6=パジャマのシンデレラ
TTITLE7=お引越し・忘れもの
TTITLE8=海の絵葉書
TTITLE9=今だけの真実
TTITLE10=ささやきの妖精
EXTD=
EXTT0=
EXTT1=
EXTT2=
EXTT3=
EXTT4=
EXTT5=
EXTT6=
EXTT7=
EXTT8=
EXTT9=
EXTT10=
PLAYORDER=
